<?xml version="1.0" standalone="no"?>
<!DOCTYPE svg PUBLIC "-//W3C//DTD SVG 20010904//EN"
 "http://www.w3.org/TR/2001/REC-SVG-20010904/DTD/svg10.dtd">
<svg version="1.0" xmlns="http://www.w3.org/2000/svg"
 width="220.000000pt" height="220.000000pt" viewBox="0 0 220.000000 220.000000"
 preserveAspectRatio="xMidYMid meet">
<metadata>
Created by potrace 1.14, written by Peter Selinger 2001-2017
</metadata>
<g transform="translate(0.000000,220.000000) scale(0.100000,-0.100000)"
fill="#000000" stroke="none">
<path d="M725 2144 c-107 -42 -115 -46 -110 -54 3 -4 -15 -17 -40 -29 -47 -22
-128 -99 -119 -113 3 -4 -1 -8 -8 -8 -19 0 -85 -76 -93 -108 -4 -15 -12 -30
-18 -34 -8 -5 -6 -8 5 -8 9 0 19 6 21 13 4 9 6 9 6 -1 1 -8 -8 -16 -19 -19
-11 -3 -17 -9 -14 -14 3 -5 1 -9 -4 -9 -6 0 -9 -8 -8 -17 0 -10 -4 -17 -11
-16 -7 2 -10 -4 -7 -12 5 -11 11 -12 25 -4 10 5 19 15 19 21 0 6 3 8 6 5 4 -4
-1 -18 -11 -33 -9 -15 -12 -23 -6 -20 8 5 8 0 2 -17 -5 -13 -12 -37 -15 -53
-2 -16 -7 -38 -9 -49 -8 -34 -14 -71 -10 -57 3 6 8 12 13 12 4 0 7 11 5 25 -1
14 2 28 8 32 6 3 7 1 4 -4 -4 -6 0 -16 8 -23 8 -7 13 -25 10 -46 -1 -19 0 -34
4 -34 4 0 7 -9 8 -20 1 -11 -3 -18 -8 -14 -5 3 -1 -9 9 -28 13 -23 16 -41 11
-60 -4 -15 -5 -29 -2 -32 3 -3 7 -44 9 -91 2 -47 7 -91 11 -98 9 -14 10 -19
12 -48 0 -11 4 -18 9 -16 4 3 7 -32 7 -76 0 -45 6 -116 13 -157 8 -41 15 -86
17 -100 2 -14 6 -34 8 -46 3 -11 8 -45 11 -75 6 -56 11 -84 23 -134 9 -39 8
-36 21 -68 7 -16 12 -30 12 -33 0 -2 16 -25 36 -51 20 -27 45 -61 57 -77 26
-35 67 -86 84 -103 6 -7 19 -13 27 -13 9 0 16 -4 16 -10 0 -5 6 -10 14 -10 8
0 16 -7 20 -15 3 -8 13 -15 21 -15 10 0 13 -5 9 -12 -4 -7 -4 -10 1 -6 4 4 17
3 28 -3 14 -8 18 -8 13 0 -4 6 -2 11 3 11 6 0 11 -7 11 -15 0 -8 5 -15 11 -15
5 0 7 6 4 13 -4 6 1 3 9 -7 15 -19 16 -19 16 -1 0 18 1 18 15 -1 8 -10 15 -15
15 -10 0 5 6 3 14 -3 11 -10 17 -8 25 6 6 10 11 12 11 6 0 -7 5 -13 11 -13 5
0 7 5 3 12 -5 7 -3 8 7 2 18 -11 69 -14 69 -3 0 4 -6 10 -12 12 -10 4 -10 6 0
6 7 1 15 -6 19 -15 5 -13 7 -13 14 -2 7 10 12 11 28 1 17 -11 19 -10 14 3 -5
14 -3 15 17 4 12 -7 20 -7 16 -2 -10 17 14 25 31 10 14 -11 16 -11 8 2 -14 23
-14 37 1 37 7 0 11 -3 9 -7 -2 -4 2 -7 10 -7 10 0 11 5 4 18 -6 12 -5 20 3 25
6 4 8 3 5 -3 -4 -6 -1 -13 7 -16 16 -6 26 1 26 17 0 6 -5 4 -11 -4 -9 -13 -10
-13 -6 0 2 9 15 15 30 15 26 0 36 10 21 23 -4 4 -4 1 0 -5 5 -9 2 -11 -9 -6
-13 4 -14 8 -4 14 7 4 17 5 21 3 4 -3 8 -1 8 5 0 6 8 7 18 4 15 -6 15 -4 4 9
-11 14 -10 16 9 11 18 -5 21 -3 16 10 -3 9 -1 19 5 23 7 4 8 3 4 -4 -4 -7 -2
-12 3 -12 6 0 11 5 11 10 0 6 5 10 11 10 5 0 7 -5 4 -11 -4 -6 2 -5 13 2 16
10 18 15 9 23 -7 6 -11 10 -8 9 2 -1 11 7 21 19 13 16 19 18 25 8 6 -9 4 -11
-5 -5 -9 5 -11 4 -6 -3 11 -18 15 -15 26 14 9 23 12 24 27 13 9 -8 14 -9 11
-4 -3 6 0 15 7 22 9 8 15 9 17 2 2 -6 10 2 18 18 8 15 36 52 62 81 25 28 61
77 78 107 17 30 36 55 42 55 6 0 9 3 6 6 -3 3 5 17 19 32 14 15 36 48 49 74
13 26 28 49 33 52 38 24 65 162 40 208 -6 11 -7 18 -1 14 9 -5 15 8 29 64 2 8
5 31 6 52 1 20 4 35 7 33 3 -2 6 27 7 63 1 37 3 91 5 120 1 28 0 52 -3 52 -3
0 -4 18 -2 39 1 22 -2 43 -8 46 -7 5 -6 12 3 23 11 13 11 14 -2 7 -13 -8 -13
-7 0 9 9 12 16 14 18 6 2 -6 11 1 19 17 12 24 12 29 -1 39 -9 6 -12 15 -8 19
4 5 2 5 -4 2 -19 -11 -37 20 -31 50 4 16 4 22 1 16 -3 -7 -10 -13 -15 -13 -6
0 -8 4 -4 9 3 5 -8 19 -25 31 -17 12 -28 26 -25 31 5 8 -16 14 -37 10 -5 0 -8
6 -8 14 0 8 -11 25 -25 37 -14 12 -25 28 -25 35 0 8 -5 11 -11 8 -6 -4 -10 -1
-8 6 3 26 -1 39 -12 39 -13 0 -49 38 -49 52 0 9 -70 83 -80 84 -3 1 -30 17
-60 36 -77 49 -169 94 -210 103 -19 4 -39 10 -45 13 -5 4 -23 7 -40 8 -31 2
-110 12 -155 20 -36 7 -132 14 -230 18 -70 2 -95 -1 -145 -20z m-312 -274 c-9
-16 -21 -30 -25 -30 -5 0 -2 14 7 30 9 17 20 30 26 30 5 0 2 -13 -8 -30z m762
-1790 c-3 -5 -12 -10 -18 -10 -7 0 -6 4 3 10 19 12 23 12 15 0z m-205 -40 c0
-5 -2 -10 -4 -10 -3 0 -8 5 -11 10 -3 6 -1 10 4 10 6 0 11 -4 11 -10z"/>
<path d="M1450 261 c0 -6 4 -13 10 -16 6 -3 7 1 4 9 -7 18 -14 21 -14 7z"/>
</g>
</svg>
